<svg width="29" height="20" xmlns="http://www.w3.org/2000/svg">
 <g>
  <title>Nuage contextuel 1</title>
  <rect id="svg_4" height="0" width="1" y="45.95001" x="44.5" stroke-width="1.5" stroke="#000" fill="#fff"/>
  <rect id="svg_5" height="0" width="1" y="39.95001" x="41.5" stroke-width="1.5" stroke="#000" fill="#fff"/>
  <path id="svg_16" d="m6.27672,19.61451c-3.38257,0 -6.12599,-2.74671 -6.12599,-6.13333l0,0c0.00204,-2.71809 1.77041,-5.00786 4.21366,-5.81031l0,0c0.08474,-2.31022 1.97767,-4.15431 4.30453,-4.15635l0,0c0.74533,0 1.44471,0.19422 2.05221,0.52849l0,0c1.29258,-2.15178 3.64497,-3.59413 6.33836,-3.59515l0,0c4.02988,0.00204 7.30729,3.22511 7.4002,7.2363l0,0c2.4116,0.82187 4.1473,3.10142 4.14934,5.79702l0,0c0,3.38662 -2.74342,6.13333 -6.12599,6.13333l0,0l-16.20632,0l0,0l-0.00001,0l0.00001,0zm16.94961,-10.14555c-0.52173,-0.09711 -0.88214,-0.57449 -0.83212,-1.10298l0,0c0.01736,-0.1748 0.02756,-0.34347 0.02756,-0.50804l0,0c-0.00714,-2.96342 -2.40139,-5.36155 -5.36127,-5.36564l0,0c-2.29623,-0.00204 -4.2494,1.44951 -5.01413,3.48577l0,0c-0.12456,0.33018 -0.41453,0.57653 -0.7637,0.644l0,0c-0.34714,0.06747 -0.70857,-0.05316 -0.94646,-0.31587l0,0c-0.42473,-0.46307 -1.0067,-0.74724 -1.66729,-0.74724l0,0c-1.25072,0.00204 -2.26254,1.01507 -2.26662,2.26729l0,0c0,0.13902 0.01736,0.28213 0.04595,0.43342l0,0c0.05003,0.27191 -0.00817,0.552 -0.16642,0.77893l0,0c-0.15826,0.22796 -0.40023,0.37924 -0.6708,0.4232l0,0c-1.9399,0.31996 -3.42239,1.99231 -3.42035,4.01835l0,0c0.00409,2.25809 1.82963,4.08377 4.08502,4.08991l0,0l16.20734,0c2.25539,-0.00613 4.07787,-1.83182 4.08298,-4.08991l0,0c0.00409,-2.00049 -1.43961,-3.65955 -3.33969,-4.0112l0,0" stroke-width="2" stroke="#000000" fill="#ffffff" stroke-opacity="0"/>
  <text transform="matrix(0.584369, 0, 0, 0.613487, 1.53151, 0.441092)" xml:space="preserve" text-anchor="start" font-family="-apple-system, BlinkMacSystemFont, 'Segoe UI', 'Roboto', 'Oxygen', 'Ubuntu', 'Cantarell', 'Fira Sans', 'Droid Sans', 'Helvetica Neue', sans-serif" font-size="24" id="svg_1" y="23.973" x="20.94946" stroke-opacity="0" stroke-width="0" stroke="#000000" fill="#ffffff">1</text>
 </g>
</svg>